<?xml version="1.0" standalone="no"?>
<!DOCTYPE svg PUBLIC "-//W3C//DTD SVG 20010904//EN"
 "http://www.w3.org/TR/2001/REC-SVG-20010904/DTD/svg10.dtd">
<svg version="1.0" xmlns="http://www.w3.org/2000/svg"
 width="468pt" height="222pt" viewBox="0 0 468 222"
 preserveAspectRatio="xMidYMid meet">
<metadata>
Created by potrace 1.8, written by Peter Selinger 2001-2007
</metadata>
<g transform="translate(0,222) scale(0.130362,-0.130362)"
fill="#000000" stroke="none">
<path d="M277 1468 c-37 -57 -72 -173 -93 -303 -25 -150 -25 -547 -1 -684 21
-119 62 -245 91 -275 21 -23 25 -23 278 -28 l257 -5 3 96 3 96 202 -3 c198 -4
202 -3 213 18 l12 22 15 -22 c11 -15 23 -20 46 -18 27 2 36 11 57 50 14 27 27
48 30 48 3 0 14 -15 24 -32 35 -62 66 -97 80 -92 8 3 29 35 47 71 30 60 34 64
46 47 48 -68 80 -108 90 -112 7 -2 21 10 30 28 10 17 27 47 39 67 l21 36 37
-62 c21 -34 46 -66 56 -71 20 -11 21 -10 73 93 l19 38 32 -47 c17 -25 41 -58
54 -73 l22 -26 25 30 c14 17 25 34 25 39 0 5 10 24 21 43 l21 34 44 -65 c27
-39 52 -66 62 -66 11 0 30 22 50 60 19 33 38 58 43 55 4 -3 25 -30 44 -60 31
-46 68 -76 80 -63 1 1 17 31 34 66 17 34 35 62 39 62 4 0 24 -27 45 -59 37
-58 60 -77 77 -66 5 3 23 33 41 65 17 33 35 60 38 60 3 0 26 -27 49 -60 25
-35 51 -60 61 -60 12 0 30 21 50 61 l33 60 47 -68 c25 -37 53 -68 60 -68 8 0
30 29 49 63 l35 64 27 -44 c35 -55 64 -81 87 -76 10 2 31 27 46 56 28 52 30
53 48 36 13 -12 23 -14 30 -7 20 20 31 145 32 368 1 279 -18 511 -42 520 -18
7 -35 -13 -63 -72 -10 -24 -22 -43 -26 -43 -4 0 -27 32 -52 71 -28 44 -50 69
-60 67 -12 -3 -48 -57 -74 -113 -3 -5 -10 -1 -17 10 -7 11 -32 40 -56 64 -49
50 -51 50 -92 -26 -14 -25 -30 -48 -36 -50 -5 -1 -27 22 -48 52 -51 74 -72 74
-111 0 -16 -30 -32 -55 -37 -55 -5 0 -13 9 -19 21 -21 37 -82 99 -99 99 -11 0
-28 -22 -46 -61 l-30 -61 -25 30 c-14 16 -36 43 -50 60 -28 35 -58 44 -71 22
-4 -8 -19 -34 -32 -58 l-24 -43 -42 56 c-24 31 -45 54 -48 51 -4 -3 -12 -1
-18 4 -10 8 -22 -5 -47 -51 l-35 -61 -21 34 c-30 48 -68 88 -85 88 -7 0 -23
-19 -35 -42 -12 -24 -30 -54 -40 -67 l-19 -23 -23 38 c-29 49 -70 94 -85 94
-6 0 -24 -27 -40 -60 -16 -33 -34 -60 -40 -60 -6 0 -19 13 -28 30 -10 16 -29
43 -43 60 -33 38 -54 29 -89 -41 -14 -27 -30 -47 -34 -45 -5 3 -26 33 -47 66
-23 36 -45 59 -54 58 -8 -2 -29 -30 -47 -63 -17 -33 -35 -61 -40 -62 -5 -2
-19 14 -30 34 -43 77 -56 83 -189 88 -65 3 -158 5 -206 5 l-88 0 0 75 0 75
-157 1 c-87 1 -203 3 -259 5 l-100 3 -27 -41z m519 1 c3 -6 2 -14 -4 -18 -8
-5 -384 -6 -491 -2 -11 1 -11 4 -1 16 10 13 51 15 251 15 164 0 240 -3 245
-11z m-93 -47 c87 -4 97 -6 97 -23 0 -18 -11 -19 -187 -20 -104 -1 -190 -1
-193 -1 -76 7 -146 14 -148 17 -1 1 0 10 4 19 6 15 25 17 168 15 88 -1 205 -4
259 -7z m97 -82 c0 -20 -4 -21 -147 -16 -82 2 -201 5 -265 5 -98 1 -118 4
-118 16 0 13 36 15 265 15 260 0 265 0 265 -20z m-516 -124 c16 -26 16 -28 -3
-59 -88 -145 -94 -463 -11 -639 22 -48 24 -60 14 -80 -6 -13 -17 -48 -25 -78
l-13 -55 -17 74 c-42 175 -52 597 -18 776 11 61 23 125 26 144 l6 34 12 -45
c6 -25 19 -58 29 -72z m936 94 c0 -6 -40 -10 -101 -10 -64 0 -98 4 -94 10 3 6
48 10 101 10 56 0 94 -4 94 -10z m-420 -25 c0 -13 -33 -15 -262 -13 -198 2
-262 6 -266 16 -3 9 54 12 262 12 231 0 266 -2 266 -15z m1416 -412 c18 -230
34 -436 34 -458 l0 -40 -43 65 c-24 36 -46 73 -50 82 -8 23 15 24 33 3 21 -25
26 -6 22 78 l-4 77 -35 15 c-35 15 -35 15 -31 69 1 30 0 52 -3 50 -3 -2 -10
60 -15 138 l-9 141 30 19 c31 19 18 26 -16 8 -29 -16 -24 7 12 47 33 38 32 61
-1 25 -12 -12 -23 -22 -25 -22 -7 0 7 33 20 50 6 8 18 30 25 48 7 18 15 31 17
28 3 -2 20 -193 39 -423z m173 247 c7 -85 21 -258 31 -385 11 -126 22 -261 26
-300 l6 -70 -45 65 c-39 58 -63 110 -51 110 3 0 16 -7 30 -16 13 -9 26 -15 28
-13 2 2 1 41 -2 87 -4 79 -6 84 -31 93 -34 13 -41 26 -41 76 0 41 1 42 25 33
34 -13 32 -4 -4 14 -27 14 -28 19 -35 108 -4 51 -9 109 -12 128 -5 32 -3 37
21 48 15 7 25 15 22 18 -3 3 -15 1 -26 -6 -33 -17 -27 24 11 71 17 21 29 41
26 45 -3 3 -15 -7 -26 -21 -13 -16 -23 -22 -27 -15 -4 6 -1 19 7 28 8 9 21 32
28 50 19 50 25 27 39 -148z m-1169 153 c0 -10 9 -128 20 -263 10 -135 24 -310
30 -390 6 -80 13 -165 16 -190 l6 -45 -28 30 c-32 35 -50 130 -22 120 13 -5
15 5 10 67 -2 41 -11 80 -18 89 -16 18 -18 39 -4 39 7 0 6 6 -1 18 -9 15 -26
17 -159 14 l-148 -3 -12 58 c-15 71 -15 201 0 267 8 36 8 52 -1 62 -10 12 -9
13 5 8 9 -3 16 -1 16 5 0 7 48 12 148 13 l147 2 -142 3 c-79 2 -143 7 -143 11
0 4 7 18 16 30 14 20 24 22 132 24 l117 2 -107 3 c-60 2 -108 8 -108 13 0 20
40 29 133 30 86 0 97 -2 97 -17z m215 -314 c14 -178 30 -371 35 -429 16 -164
16 -164 -26 -97 -21 31 -43 57 -50 57 -8 0 -14 11 -14 26 0 24 1 24 22 10 48
-34 57 -12 42 98 -6 38 -12 50 -39 66 -30 18 -33 25 -33 70 0 48 1 50 27 44
24 -5 23 -3 -7 13 -18 11 -31 21 -28 24 3 2 1 54 -4 114 -8 109 -8 110 16 132
29 27 31 38 5 23 -26 -14 -31 -13 -31 6 0 9 11 30 25 46 28 33 27 51 -2 23
-21 -22 -29 -5 -13 26 10 18 14 19 22 8 8 -11 9 -10 4 4 -5 16 13 72 21 64 1
-2 14 -150 28 -328z m1150 135 c8 -104 22 -259 30 -344 8 -85 17 -202 21 -260
l6 -105 -41 55 c-22 30 -41 66 -41 79 l0 24 26 -24 26 -24 -6 80 c-6 72 -10
83 -38 112 -35 36 -33 51 4 33 19 -9 18 -7 -6 13 -21 18 -27 31 -23 46 3 12 2
21 -2 21 -4 0 -13 64 -19 143 l-12 142 27 22 c29 24 25 30 -8 13 -16 -9 -19
-7 -19 12 0 12 10 32 22 45 24 26 19 43 -6 18 -9 -9 -16 -13 -16 -10 0 11 53
106 57 102 1 -2 10 -89 18 -193z m615 -364 c11 -140 23 -279 26 -309 8 -63 0
-62 -45 5 -21 30 -31 57 -31 82 l0 37 21 -32 c12 -18 24 -31 28 -29 4 3 4 31
-1 63 -4 32 -10 79 -13 104 -5 35 -11 48 -25 52 -29 7 -26 36 3 31 l22 -5 -22
12 c-27 14 -40 48 -23 59 8 5 9 9 1 11 -6 2 -15 64 -22 146 l-11 143 23 20
c26 21 20 26 -12 10 -28 -16 -25 11 6 48 14 17 25 33 25 38 0 4 -11 -3 -25
-16 -32 -30 -32 -20 3 43 l27 50 12 -154 c7 -85 22 -269 33 -409z m-1591 400
c6 -80 20 -260 31 -400 11 -140 22 -273 25 -295 l5 -40 -27 35 c-15 19 -38 45
-50 58 -13 13 -23 30 -23 39 0 14 3 13 26 -2 14 -9 28 -15 30 -12 3 2 2 41 -2
85 -7 80 -7 81 -40 97 -19 9 -34 23 -34 31 0 11 4 12 19 4 11 -5 28 -10 38
-10 11 1 5 7 -17 18 -28 14 -35 23 -36 47 0 17 -4 85 -9 152 l-7 122 28 26
c23 20 24 24 7 16 -52 -26 -59 4 -12 56 36 42 31 58 -6 17 -24 -26 -26 -27
-20 -7 7 26 56 116 60 111 2 -2 8 -68 14 -148z m211 -295 c11 -148 22 -306 26
-350 l5 -80 -21 25 c-32 36 -73 110 -66 117 3 4 17 -4 31 -17 l25 -23 0 34 c0
19 -3 58 -7 88 -5 45 -11 56 -34 70 -30 17 -40 38 -14 27 43 -17 49 -17 25 2
-13 11 -28 18 -32 16 -4 -3 -8 11 -8 31 0 32 2 35 19 25 11 -5 23 -10 28 -10
4 1 -4 7 -19 15 -28 16 -30 21 -43 193 -6 70 -5 73 22 98 22 20 24 23 6 15
-12 -6 -24 -11 -27 -11 -12 0 -5 39 8 47 7 4 19 19 26 33 l13 25 -27 -24 c-36
-33 -35 -7 2 54 l27 46 7 -88 c4 -49 17 -209 28 -358z m990 5 c17 -212 33
-403 36 -425 l6 -40 -46 63 c-25 34 -46 72 -46 85 1 21 1 21 25 -5 13 -16 26
-25 28 -20 2 4 -1 44 -7 90 -10 73 -14 84 -36 95 -14 7 -26 21 -28 31 -3 15
-1 16 16 7 36 -19 48 -12 15 9 -23 14 -33 27 -33 45 0 23 2 24 21 15 11 -7 23
-10 25 -7 3 2 -8 10 -24 16 -28 12 -30 15 -36 99 -4 48 -9 113 -13 145 -5 47
-3 57 9 57 9 0 21 7 28 15 14 17 7 19 -20 5 -17 -9 -19 -6 -18 32 0 29 9 57
26 86 l27 42 7 -27 c4 -16 21 -201 38 -413z m185 70 c13 -173 27 -362 31 -420
l6 -105 -39 55 c-21 30 -42 63 -46 73 -6 16 -3 16 23 -3 l30 -21 0 50 c0 85
-19 151 -46 163 -13 6 -24 17 -24 25 0 10 5 11 19 3 37 -19 44 -10 10 13 -19
12 -35 30 -37 40 -3 14 2 16 30 11 l33 -5 -31 15 c-30 13 -32 18 -39 84 -4 39
-4 79 -1 90 4 11 2 23 -4 27 -19 12 -11 76 13 96 l22 20 -22 -11 c-20 -9 -23
-8 -23 8 0 10 11 29 25 42 14 13 25 28 25 33 0 6 -11 0 -25 -13 -32 -30 -32
-18 3 48 27 52 27 52 34 25 4 -16 19 -170 33 -343z m372 253 c10 -151 11 -580
0 -656 -9 -59 -27 -70 -27 -16 0 17 4 28 8 25 5 -3 8 35 8 85 -1 76 -4 90 -18
95 -10 3 -18 15 -18 26 0 17 2 18 15 8 9 -7 19 -9 23 -5 4 4 1 10 -6 12 -37
14 -57 63 -25 63 16 0 16 1 0 13 -13 9 -18 34 -22 102 -3 50 -7 111 -9 136 -4
42 -2 47 27 64 33 20 22 34 -12 15 -17 -9 -21 -8 -21 4 0 8 6 19 13 23 6 4 21
19 32 33 l20 25 -25 -21 c-14 -12 -33 -21 -42 -21 -14 0 -12 7 12 33 15 18 31
42 35 53 14 45 23 16 32 -96z m-1373 -19 c4 -64 15 -216 26 -338 10 -121 22
-268 26 -326 l6 -105 -40 60 c-57 86 -68 131 -20 88 10 -9 20 -14 22 -12 2 2
2 43 -1 91 -6 84 -7 87 -34 99 -16 6 -29 18 -29 26 0 10 6 13 15 9 8 -3 23 -8
33 -11 14 -5 14 -4 -2 7 -61 41 -77 85 -28 74 l27 -6 -26 14 c-24 14 -27 22
-32 98 -12 146 -9 182 13 196 11 7 20 17 20 22 0 6 -8 5 -20 -2 -33 -21 -34 0
-1 37 39 45 40 58 1 20 -16 -16 -30 -25 -30 -21 0 16 53 105 60 101 4 -2 10
-57 14 -121z m-1194 74 c0 -17 -478 -14 -494 2 -7 7 69 10 242 10 195 0 252
-3 252 -12z m-104 -48 l102 0 -4 -152 c-2 -84 -4 -239 -5 -345 0 -166 -3 -192
-16 -195 -9 -2 -114 -2 -235 0 l-218 3 -19 37 c-31 61 -62 186 -68 276 -8 116
10 223 54 315 l36 74 135 -7 c74 -3 181 -6 238 -6z m613 -81 c13 -11 21 -22
18 -25 -7 -8 -67 24 -67 36 0 16 23 11 49 -11z m201 -30 c0 -12 -4 -11 -35 3
-14 6 -25 20 -25 30 0 19 1 18 30 -2 17 -12 30 -26 30 -31z m368 23 c34 -22
26 -32 -15 -18 -21 7 -39 20 -41 29 -4 19 15 15 56 -11z m1176 -11 c18 -20 18
-20 -15 -11 -19 6 -35 10 -36 10 -2 0 -3 9 -3 20 0 17 3 19 18 11 9 -5 26 -18
36 -30z m-1371 6 c15 -12 27 -28 27 -35 0 -19 -68 18 -73 39 -7 26 14 24 46
-4z m389 -7 c26 -23 29 -29 15 -30 -24 0 -67 29 -67 46 0 22 17 17 52 -16z
m216 -29 c2 -7 -9 -5 -32 6 -23 11 -36 24 -36 36 0 18 2 18 32 -5 18 -14 34
-30 36 -37z m172 28 l35 -31 -30 7 c-28 6 -55 29 -55 47 0 15 15 8 50 -23z
m195 -1 c19 -13 35 -31 35 -42 0 -17 -2 -18 -17 -4 -10 9 -28 19 -40 22 -14 5
-23 15 -23 27 0 24 3 24 45 -3z m224 -41 c1 -9 -51 23 -61 38 -4 5 -8 14 -8
18 0 11 68 -45 69 -56z m385 11 c28 -26 14 -32 -27 -12 -21 10 -37 26 -40 40
-4 22 -3 22 22 6 14 -9 35 -25 45 -34z m-1964 17 c29 -15 40 -35 20 -35 -20 0
-60 24 -60 37 0 17 4 16 40 -2z m191 -11 c17 -8 29 -17 27 -20 -7 -7 -68 17
-68 27 0 12 6 11 41 -7z m419 -29 c0 -19 -74 9 -78 28 -3 14 1 14 37 0 23 -9
41 -22 41 -28z m-229 18 c16 -10 29 -21 29 -25 0 -12 -63 16 -68 30 -5 16 5
15 39 -5z m419 -25 c0 -5 -12 -5 -27 -2 -38 9 -43 13 -43 29 0 12 6 12 35 -2
19 -9 35 -20 35 -25z m966 26 c13 -3 24 -12 24 -20 0 -16 -16 -19 -25 -4 -3 6
-17 10 -31 10 -15 0 -24 6 -24 16 0 11 5 14 16 10 9 -3 27 -9 40 -12z m-801
-6 c23 -10 35 -28 18 -28 -25 1 -53 14 -53 26 0 17 2 17 35 2z m200 0 c37 -17
30 -28 -10 -15 -19 6 -35 14 -35 19 0 11 14 10 45 -4z m214 -29 c27 -21 18
-24 -27 -8 -16 5 -32 19 -35 29 -4 17 -2 18 16 8 12 -6 33 -19 46 -29z m182
10 c13 -11 17 -18 9 -15 -8 3 -23 9 -32 12 -10 4 -18 10 -18 15 0 15 16 10 41
-12z m-1528 -6 c15 -9 6 -23 -14 -23 -26 0 -59 17 -59 31 0 10 53 4 73 -8z
m165 11 c12 -4 22 -13 22 -21 0 -11 -6 -14 -22 -9 -13 3 -26 6 -29 6 -4 0 -9
7 -13 15 -6 16 5 18 42 9z m412 -43 c0 -4 -17 -5 -37 -2 -30 5 -39 11 -41 29
l-4 23 41 -21 c23 -11 41 -24 41 -29z m1342 29 l33 -20 -27 0 c-37 0 -58 10
-58 26 0 19 14 18 52 -6z m-1560 -7 c16 -5 33 -32 25 -40 -9 -9 -77 29 -77 43
0 11 5 14 18 9 9 -4 25 -9 34 -12z m1363 3 c48 -20 44 -36 -5 -23 -22 6 -40
17 -40 24 0 16 3 16 45 -1z m-980 -8 c31 -14 33 -33 3 -24 -13 3 -29 6 -35 6
-7 0 -13 7 -13 15 0 18 11 19 45 3z m194 1 c43 -15 43 -41 -1 -28 -18 5 -34 9
-35 9 -2 0 -3 7 -3 15 0 18 -1 18 39 4z m200 0 c29 -10 44 -39 21 -39 -18 0
-70 30 -70 40 0 13 10 13 49 -1z m411 -27 c0 -10 -7 -12 -22 -8 -13 3 -26 6
-30 6 -5 0 -8 9 -8 19 0 17 3 18 30 8 17 -6 30 -18 30 -25z m-181 -7 c11 -12
-8 -14 -42 -4 -21 6 -37 16 -37 25 0 12 5 12 37 -1 20 -9 39 -18 42 -20z
m-1179 -12 c0 -11 -6 -14 -22 -9 -13 3 -26 6 -30 6 -5 0 -8 9 -8 19 0 18 3 19
30 10 17 -6 30 -18 30 -26z m-202 21 c37 -10 27 -34 -13 -31 -26 1 -35 7 -35
20 0 18 11 21 48 11z m1778 -27 c9 -8 -32 -9 -63 -1 -13 4 -23 12 -23 19 0 10
8 11 39 1 22 -6 43 -15 47 -19z m162 27 c12 -4 22 -14 22 -24 0 -16 -4 -17
-35 -7 -56 17 -45 46 13 31z m-1568 -19 c17 -9 30 -20 30 -25 0 -12 0 -12 -39
1 -17 6 -31 17 -31 25 0 18 4 18 40 -1z m214 -5 c15 -15 3 -20 -37 -13 -23 3
-37 11 -37 21 0 11 7 13 32 8 18 -3 37 -11 42 -16z m165 9 c35 -12 43 -35 9
-25 -13 3 -29 6 -35 6 -7 0 -13 7 -13 15 0 18 -1 18 39 4z m430 -24 c9 -10 -5
-13 -36 -8 -19 3 -33 12 -36 24 -5 17 -3 18 31 3 20 -8 38 -17 41 -19z m-213
10 c14 -11 15 -14 4 -15 -26 0 -60 12 -60 21 0 14 34 10 56 -6z m413 -22 c4
-3 -5 -3 -19 0 -14 4 -33 7 -42 7 -10 0 -18 7 -18 15 0 14 4 14 37 0 20 -9 39
-18 42 -22z m175 21 c9 -3 16 -12 16 -19 0 -11 -6 -11 -30 -2 -16 6 -30 15
-30 19 0 10 22 10 44 2z m-1668 -200 c-3 -9 -6 -22 -6 -30 0 -11 -24 -14 -125
-14 -113 0 -125 2 -135 19 -20 39 -14 41 131 41 125 0 140 -2 135 -16z m-8
-81 c-3 -16 -17 -18 -111 -19 -95 -1 -109 1 -118 17 -9 18 -3 19 111 19 110 0
121 -2 118 -17z m12 -59 c0 -15 -11 -16 -86 -11 -126 7 -134 27 -11 27 83 0
97 -2 97 -16z m0 -184 l0 -29 -57 4 c-32 2 -122 4 -200 4 l-143 1 0 25 0 25
200 0 200 0 0 -30z"/>
<path d="M2150 739 c0 -9 48 -24 55 -17 2 2 -9 9 -25 15 -17 6 -30 7 -30 2z"/>
<path d="M2360 730 c20 -13 43 -13 35 0 -3 6 -16 10 -28 10 -18 0 -19 -2 -7
-10z"/>
<path d="M1390 741 c0 -12 39 -35 46 -28 3 2 -7 12 -21 21 -14 9 -25 12 -25 7z"/>
<path d="M2734 1186 c-10 -8 -16 -17 -13 -20 3 -3 14 3 24 14 21 23 17 26 -11
6z"/>
</g>
</svg>
