<?xml version="1.0" encoding="UTF-8"?>
<!DOCTYPE svg PUBLIC "-//W3C//DTD SVG 1.1//EN" "http://www.w3.org/Graphics/SVG/1.1/DTD/svg11.dtd">
<svg xmlns="http://www.w3.org/2000/svg" xmlns:xlink="http://www.w3.org/1999/xlink" version="1.1" width="70px" height="78px" viewBox="-0.5 -0.5 70 78"><defs/><g><rect x="5" y="0.5" width="30" height="30" fill="rgb(255, 255, 255)" stroke="rgb(0, 0, 0)" stroke-width="1.5" pointer-events="all"/><path d="M 0 15.5 L 45 15.5" fill="none" stroke="rgb(0, 0, 0)" stroke-width="0.5" stroke-miterlimit="10" stroke-dasharray="1.4999999999999998 1.4999999999999998" pointer-events="stroke"/><path d="M 35 15.5 L 35 37.32" fill="none" stroke="rgb(0, 0, 0)" stroke-width="0.5" stroke-miterlimit="10" pointer-events="stroke"/><path d="M 35 39.94 L 33.25 36.44 L 35 37.32 L 36.75 36.44 Z" fill="rgb(0, 0, 0)" stroke="rgb(0, 0, 0)" stroke-width="0.5" stroke-miterlimit="10" pointer-events="all"/><path d="M 35 15.5 L 46.82 15.5" fill="none" stroke="rgb(0, 0, 0)" stroke-width="0.5" stroke-miterlimit="10" pointer-events="stroke"/><path d="M 49.44 15.5 L 45.94 17.25 L 46.82 15.5 L 45.94 13.75 Z" fill="rgb(0, 0, 0)" stroke="rgb(0, 0, 0)" stroke-width="0.5" stroke-miterlimit="10" pointer-events="all"/><rect x="36.25" y="49.92" width="29.5" height="17.88" fill="#000000" stroke="rgb(0, 0, 0)" stroke-width="0.5" transform="rotate(-90,51,58.86)" pointer-events="none"/><path d="M 50.99 21.36 L 60.99 41.36 L 50.99 61.36 L 40.99 41.36 Z" fill="#fff2cc" stroke="#d6b656" stroke-width="0.5" stroke-miterlimit="10" transform="rotate(333,50.99,41.36)" pointer-events="none"/><ellipse cx="50.93" cy="41.36" rx="1.9999999999999998" ry="1.9999999999999998" fill="#000000" stroke="rgb(0, 0, 0)" stroke-width="0.5" pointer-events="none"/><path d="M 51 15.5 L 56 15.5" fill="none" stroke="rgb(0, 0, 0)" stroke-width="0.5" stroke-miterlimit="10" pointer-events="none"/><path d="M 53.5 13 L 53.5 18" fill="none" stroke="rgb(0, 0, 0)" stroke-width="0.5" stroke-miterlimit="10" pointer-events="none"/><path d="M 64 20.75 L 56 20.75 L 63.5 10.25 L 56 10.25" fill="none" stroke="rgb(0, 0, 0)" stroke-miterlimit="10" pointer-events="none"/><path d="M 27.5 46 L 32.5 46" fill="none" stroke="rgb(0, 0, 0)" stroke-width="0.5" stroke-miterlimit="10" pointer-events="none"/><path d="M 30 43.5 L 30 48.5" fill="none" stroke="rgb(0, 0, 0)" stroke-width="0.5" stroke-miterlimit="10" pointer-events="none"/><path d="M 38 51 L 32 41" fill="none" stroke="rgb(0, 0, 0)" stroke-miterlimit="10" pointer-events="none"/><path d="M 32 51 L 38.5 41" fill="none" stroke="rgb(0, 0, 0)" stroke-miterlimit="10" pointer-events="none"/></g></svg>