<?xml version="1.0" encoding="UTF-8"?>
<!DOCTYPE svg PUBLIC "-//W3C//DTD SVG 1.1//EN" "http://www.w3.org/Graphics/SVG/1.1/DTD/svg11.dtd">
<svg xmlns="http://www.w3.org/2000/svg" xmlns:xlink="http://www.w3.org/1999/xlink" version="1.1" width="101px" height="101px" viewBox="-0.5 -0.5 101 101"><defs/><g><path d="M 25.38 28.12 C 25.38 25.29 32.09 23 40.38 23 C 44.35 23 48.17 23.54 50.98 24.5 C 53.79 25.46 55.38 26.76 55.38 28.12 L 55.38 49.13 C 55.38 51.96 48.66 54.25 40.38 54.25 C 36.4 54.25 32.58 53.71 29.77 52.75 C 26.96 51.79 25.38 50.49 25.38 49.13 Z" fill="#e6e6e6" stroke="rgb(0, 0, 0)" stroke-miterlimit="10" transform="rotate(90,40.38,38.63)" pointer-events="all"/><path d="M 55.38 28.12 C 55.38 30.95 48.66 33.25 40.38 33.25 C 36.4 33.25 32.58 32.71 29.77 31.75 C 26.96 30.79 25.38 29.48 25.38 28.12" fill="none" stroke="rgb(0, 0, 0)" stroke-miterlimit="10" transform="rotate(90,40.38,38.63)" pointer-events="all"/><path d="M 51 39.13 L 51 60.94" fill="none" stroke="rgb(0, 0, 0)" stroke-width="0.5" stroke-miterlimit="10" pointer-events="stroke"/><path d="M 51 63.57 L 49.25 60.07 L 51 60.94 L 52.75 60.07 Z" fill="rgb(0, 0, 0)" stroke="rgb(0, 0, 0)" stroke-width="0.5" stroke-miterlimit="10" pointer-events="all"/><path d="M 53.5 39.13 L 62.82 39.13" fill="none" stroke="rgb(0, 0, 0)" stroke-width="0.5" stroke-miterlimit="10" pointer-events="stroke"/><path d="M 65.44 39.13 L 61.94 40.88 L 62.82 39.13 L 61.94 37.38 Z" fill="rgb(0, 0, 0)" stroke="rgb(0, 0, 0)" stroke-width="0.5" stroke-miterlimit="10" pointer-events="all"/><rect x="55.25" y="66.32" width="15.92" height="9.65" fill="#000000" stroke="rgb(0, 0, 0)" stroke-width="0.5" transform="rotate(-90,63.22,71.14)" pointer-events="none"/><path d="M 63.21 50.9 L 68.61 61.69 L 63.21 72.49 L 57.81 61.69 Z" fill="#fff2cc" stroke="#d6b656" stroke-width="0.5" stroke-miterlimit="10" transform="rotate(333,63.21,61.69)" pointer-events="none"/><ellipse cx="63.17" cy="61.69" rx="1.0793650094443847" ry="1.0793650094443847" fill="#000000" stroke="rgb(0, 0, 0)" stroke-width="0.5" pointer-events="none"/><path d="M 67 39.13 L 72 39.13" fill="none" stroke="rgb(0, 0, 0)" stroke-width="0.5" stroke-miterlimit="10" pointer-events="none"/><path d="M 69.5 36.63 L 69.5 41.63" fill="none" stroke="rgb(0, 0, 0)" stroke-width="0.5" stroke-miterlimit="10" pointer-events="none"/><path d="M 80 44.38 L 72 44.38 L 79.5 33.88 L 72 33.88" fill="none" stroke="rgb(0, 0, 0)" stroke-miterlimit="10" pointer-events="none"/><path d="M 43.5 69.63 L 48.5 69.63" fill="none" stroke="rgb(0, 0, 0)" stroke-width="0.5" stroke-miterlimit="10" pointer-events="none"/><path d="M 46 67.13 L 46 72.13" fill="none" stroke="rgb(0, 0, 0)" stroke-width="0.5" stroke-miterlimit="10" pointer-events="none"/><path d="M 54 74.63 L 48 64.63" fill="none" stroke="rgb(0, 0, 0)" stroke-miterlimit="10" pointer-events="none"/><path d="M 48 74.63 L 54.5 64.63" fill="none" stroke="rgb(0, 0, 0)" stroke-miterlimit="10" pointer-events="none"/><path d="M 20.5 39.13 L 25.5 39.13" fill="none" stroke="#666666" stroke-miterlimit="10" pointer-events="none"/><path d="M 26.5 39.13 L 27.5 39.13" fill="none" stroke="#666666" stroke-miterlimit="10" pointer-events="none"/><path d="M 28.5 39.13 L 33.5 39.13" fill="none" stroke="#666666" stroke-miterlimit="10" pointer-events="none"/><path d="M 34.5 39.13 L 35.5 39.13" fill="none" stroke="#666666" stroke-miterlimit="10" pointer-events="none"/><path d="M 36.5 39.13 L 41.5 39.13" fill="none" stroke="#666666" stroke-miterlimit="10" pointer-events="none"/><path d="M 42.5 39.13 L 43.5 39.13" fill="none" stroke="#666666" stroke-miterlimit="10" pointer-events="none"/><path d="M 44.5 39.13 L 49.5 39.13" fill="none" stroke="#666666" stroke-miterlimit="10" pointer-events="none"/><path d="M 50.5 39.13 L 51.5 39.13" fill="none" stroke="#666666" stroke-miterlimit="10" pointer-events="none"/><path d="M 52.9 44.64 C 52.18 47.5 51 48.42 49.99 46.9 C 48.98 45.39 48.38 41.8 48.52 38.07 C 48.66 34.34 49.5 31.36 50.59 30.74 C 51.67 30.12 52.76 32 53.24 35.37" fill="none" stroke="#ff0000" stroke-width="0.5" stroke-miterlimit="10" pointer-events="none"/><path d="M 51 39.13 L 53.5 39.13" fill="none" stroke="rgb(0, 0, 0)" stroke-width="0.5" stroke-miterlimit="10" pointer-events="none"/><path d="M 53 44.13 L 52.79 44.76" fill="none" stroke="#ff0000" stroke-width="0.1" stroke-miterlimit="10" pointer-events="none"/><path d="M 53.5 42.63 L 53.5 45.79 L 52.79 44.76 L 51.6 45.15 Z" fill="#ff0000" stroke="#ff0000" stroke-width="0.1" stroke-miterlimit="10" pointer-events="none"/></g></svg>