<?xml version="1.0" encoding="UTF-8"?>
<!DOCTYPE svg PUBLIC "-//W3C//DTD SVG 1.1//EN" "http://www.w3.org/Graphics/SVG/1.1/DTD/svg11.dtd">
<svg xmlns="http://www.w3.org/2000/svg" xmlns:xlink="http://www.w3.org/1999/xlink" version="1.1" width="100px" height="100px" viewBox="-0.5 -0.5 100 100"><defs/><g><path d="M 7 25.12 C 7 22.29 18.03 20 31.64 20 C 38.18 20 44.45 20.54 49.07 21.5 C 53.69 22.46 56.29 23.76 56.29 25.12 L 56.29 53.17 C 56.29 54.53 53.69 55.83 49.07 56.79 C 44.45 57.76 38.18 58.3 31.64 58.3 C 18.03 58.3 7 56 7 53.17 Z" fill="#e6e6e6" stroke="rgb(0, 0, 0)" stroke-miterlimit="10" transform="rotate(90,31.64,39.15)" pointer-events="none"/><path d="M 56.29 25.12 C 56.29 26.48 53.69 27.79 49.07 28.75 C 44.45 29.71 38.18 30.25 31.64 30.25 C 18.03 30.25 7 27.95 7 25.12" fill="none" stroke="rgb(0, 0, 0)" stroke-miterlimit="10" transform="rotate(90,31.64,39.15)" pointer-events="none"/><path d="M 45.66 39.76 L 45.66 75.93" fill="none" stroke="rgb(0, 0, 0)" stroke-miterlimit="10" pointer-events="none"/><path d="M 45.66 78.93 L 43.66 74.93 L 45.66 75.93 L 47.66 74.93 Z" fill="rgb(0, 0, 0)" stroke="rgb(0, 0, 0)" stroke-miterlimit="10" pointer-events="none"/><path d="M 45.66 39.61 L 67.89 39.61" fill="none" stroke="rgb(0, 0, 0)" stroke-miterlimit="10" pointer-events="none"/><path d="M 70.89 39.61 L 66.89 41.61 L 67.89 39.61 L 66.89 37.61 Z" fill="rgb(0, 0, 0)" stroke="rgb(0, 0, 0)" stroke-miterlimit="10" pointer-events="none"/><path d="M 8.28 39.76 L 14.41 39.76" fill="none" stroke="#666666" stroke-miterlimit="10" pointer-events="none"/><path d="M 15.64 39.76 L 16.86 39.76" fill="none" stroke="#666666" stroke-miterlimit="10" pointer-events="none"/><path d="M 18.09 39.76 L 24.22 39.76" fill="none" stroke="#666666" stroke-miterlimit="10" pointer-events="none"/><path d="M 25.44 39.76 L 26.67 39.76" fill="none" stroke="#666666" stroke-miterlimit="10" pointer-events="none"/><path d="M 27.89 39.76 L 34.02 39.76" fill="none" stroke="#666666" stroke-miterlimit="10" pointer-events="none"/><path d="M 35.25 39.76 L 36.47 39.76" fill="none" stroke="#666666" stroke-miterlimit="10" pointer-events="none"/><path d="M 37.7 39.76 L 43.83 39.76" fill="none" stroke="#666666" stroke-miterlimit="10" pointer-events="none"/><path d="M 45.05 39.76 L 46.28 39.76" fill="none" stroke="#666666" stroke-miterlimit="10" pointer-events="none"/><path d="M 48.5 45.98 C 47.96 53.19 46.55 57.37 45.13 56.01 C 43.71 54.65 42.65 48.13 42.6 40.35 C 42.55 32.57 43.52 25.65 44.92 23.75 C 46.32 21.85 47.78 25.49 48.41 32.47" fill="none" stroke="#ff0000" stroke-width="0.5" stroke-miterlimit="10" pointer-events="none"/><path d="M 48.39 47.09 L 48.48 46.29" fill="none" stroke="#ff0000" stroke-width="0.1" stroke-miterlimit="10" pointer-events="none"/><path d="M 48.73 44.05 L 49.39 47.14 L 48.48 46.29 L 47.4 46.92 Z" fill="#ff0000" stroke="#ff0000" stroke-width="0.1" stroke-miterlimit="10" pointer-events="none"/><path d="M 44.4 65.12 L 78.33 65.12 L 82.33 69.12 L 82.33 81.14 L 48.4 81.14 L 44.4 77.14 L 44.4 65.12 Z" fill="#808080" stroke="#333333" stroke-width="0.5" stroke-miterlimit="10" transform="translate(63.37,0)scale(-1,1)translate(-63.37,0)rotate(-90,63.37,73.13)" pointer-events="none"/><path d="M 44.4 65.12 L 78.33 65.12 L 82.33 69.12 L 48.4 69.12 Z" fill-opacity="0.05" fill="#000000" stroke="none" transform="translate(63.37,0)scale(-1,1)translate(-63.37,0)rotate(-90,63.37,73.13)" pointer-events="none"/><path d="M 44.4 65.12 L 48.4 69.12 L 48.4 81.14 L 44.4 77.14 Z" fill-opacity="0.1" fill="#000000" stroke="none" transform="translate(63.37,0)scale(-1,1)translate(-63.37,0)rotate(-90,63.37,73.13)" pointer-events="none"/><path d="M 48.4 81.14 L 48.4 69.12 L 44.4 65.12 M 48.4 69.12 L 82.33 69.12" fill="none" stroke="#333333" stroke-width="0.5" stroke-miterlimit="10" transform="translate(63.37,0)scale(-1,1)translate(-63.37,0)rotate(-90,63.37,73.13)" pointer-events="none"/><path d="M 61.24 43.62 L 67.85 56.85 L 61.24 70.08 L 54.63 56.85 Z" fill="#e4ce32" stroke="#826f34" stroke-width="0.5" stroke-miterlimit="10" transform="rotate(333.33,61.24,56.85)" pointer-events="none"/><ellipse cx="61.2" cy="56.85" rx="1.3227576002691868" ry="1.3227576002691868" fill="#000000" stroke="rgb(0, 0, 0)" stroke-width="0.5" pointer-events="none"/><path d="M 29 71.38 L 34.38 71.38" fill="none" stroke="rgb(0, 0, 0)" stroke-miterlimit="10" pointer-events="none"/><path d="M 31.69 68.69 L 31.69 74.07" fill="none" stroke="rgb(0, 0, 0)" stroke-miterlimit="10" pointer-events="none"/><path d="M 40.3 76.76 L 33.84 66" fill="none" stroke="rgb(0, 0, 0)" stroke-miterlimit="10" pointer-events="none"/><path d="M 33.84 76.76 L 40.84 66" fill="none" stroke="rgb(0, 0, 0)" stroke-miterlimit="10" pointer-events="none"/><path d="M 67.93 34.04 L 60.28 34.04 L 67.45 24 L 60.28 24" fill="none" stroke="rgb(0, 0, 0)" stroke-miterlimit="10" pointer-events="none"/><path d="M 55.5 29 L 60.88 29" fill="none" stroke="rgb(0, 0, 0)" stroke-miterlimit="10" pointer-events="none"/><path d="M 58.19 26.31 L 58.19 31.69" fill="none" stroke="rgb(0, 0, 0)" stroke-miterlimit="10" pointer-events="none"/></g></svg>